<svg xmlns="http://www.w3.org/2000/svg" viewBox="0 0 33.867 33.867" height="128" width="128"><g fill="#fff"><path d="M9.171 10.977L.634 12.894v20.973l10.1-2.27V14.756a22.002 22.002 0 0 1-1.563-3.778zm12.814 5.77c-.189.305-.379.609-.57.896-1.947 2.937-3.902 4.924-3.902 4.924l-.58.59-.58-.59s-1.957-1.987-3.906-4.924c-.19-.284-.566-.887-.566-.887l-.015 14.755 10.12 2.271zm11.248-6.121l-9.143 2.053c-.288.71-.612 1.4-.957 2.064v19.121l10.1-2.266z" color="#000" overflow="visible"/><path d="M16.934 0c-2.329 0-3.976.835-5.095 2.085-1.119 1.25-1.7 2.955-1.703 4.706-.007 3.456 1.805 7.152 3.664 9.952 1.568 2.364 2.68 3.479 3.131 3.955.45-.476 1.56-1.59 3.128-3.955 1.858-2.8 3.672-6.495 3.672-9.952 0-1.746-.522-3.455-1.602-4.7C21.05.843 19.415 0 16.934 0zm-.001 3.524a3.136 3.136 0 0 1 3.136 3.136 3.136 3.136 0 0 1-3.136 3.135 3.136 3.136 0 0 1-3.136-3.135 3.136 3.136 0 0 1 3.136-3.136z" fill-rule="evenodd"/></g></svg>
